<?xml version="1.0" encoding="UTF-8"?>
<svg id="b" data-name="레이어 2" xmlns="http://www.w3.org/2000/svg" viewBox="0 0 71.7 70.9">
  <defs>
    <style>
      .d {
        fill: #fff;
      }

      .d, .e {
        stroke: #000;
        stroke-miterlimit: 10;
      }

      .e {
        fill: #ffce00;
      }
    </style>
  </defs>
  <g id="c" data-name="레이어 1">
    <g>
      <rect class="e" x=".5" y="18.8" width="70.7" height="51.7" rx="6.2" ry="6.2"/>
      <path d="m41.2,43c0-3-2.4-5.4-5.4-5.4s-5.4,2.4-5.4,5.4.9,3.3,2.2,4.3l-2.2,14.4h10.7l-2.2-14.3c1.3-1,2.2-2.5,2.2-4.3Z"/>
      <path class="d" d="m6,18.8h59.7c3,0,5.5,2.5,5.5,5.5v4.5H.5v-4.5c0-3,2.5-5.5,5.5-5.5Z"/>
      <path class="d" d="m13.3,24c.4.5,1,.6,1.9.8.5.1,1,.1,1.3.1,0,0,0,0,0,0,0,0,1.8,0,3.3-.5.2,0,.4-.2.4-.2s0,0,0,0c.1,0,.3-.2.5-.4,0,0,0,0,0-.1,0-.2,0-.4,0-.4,0-.2,0-4.3,3.3-8.7.8-1,1.6-2.1,3-3.2,3.7-2.9,8-2.9,9.3-2.8,5.6.2,9.2,3.6,10,4.4,4.3,4.3,4.4,9.6,4.4,10.7,0,0,0,.1,0,.2.2.4.6.5.7.5,1,.3,2.6.8,4.6.4.6-.1,1.2-.3,1.6-.4.1,0,.3-.1.5-.3,0,0,.1-.1.2-.2,0,0,0,0,0-.1,0-.2,0-.3,0-.4,0-1.7-.2-4-1-6.7-1.1-3.6-3-6.1-4.2-7.6-1.2-1.5-5.7-6.6-13.3-8.1-5.5-1.1-10,.3-12,1-1.9.7-7.2,3-11.1,8.8-3.4,5.1-3.8,10.1-3.9,12.2,0,.6.1,1,.2,1.1Z"/>
    </g>
  </g>
</svg>